<?xml version="1.0" encoding="UTF-8" standalone="no"?>
<!-- Created with Inkscape (http://www.inkscape.org/) -->

<svg
   xmlns:dc="http://purl.org/dc/elements/1.1/"
   xmlns:cc="http://creativecommons.org/ns#"
   xmlns:rdf="http://www.w3.org/1999/02/22-rdf-syntax-ns#"
   xmlns:svg="http://www.w3.org/2000/svg"
   xmlns="http://www.w3.org/2000/svg"
   xmlns:sodipodi="http://sodipodi.sourceforge.net/DTD/sodipodi-0.dtd"
   xmlns:inkscape="http://www.inkscape.org/namespaces/inkscape"
   width="87.499947"
   height="17.5"
   id="svg2"
   sodipodi:version="0.32"
   inkscape:version="0.48.1 r9760"
   inkscape:export-filename="/home/matias/repositorios/comonoservisto/content/imagenes/css.png"
   inkscape:export-xdpi="90"
   inkscape:export-ydpi="90"
   sodipodi:docname="css.svg"
   inkscape:output_extension="org.inkscape.output.svg.inkscape"
   version="1.1">
  <defs
     id="defs4">
    <inkscape:perspective
       sodipodi:type="inkscape:persp3d"
       inkscape:vp_x="0 : 526.18109 : 1"
       inkscape:vp_y="0 : 1000 : 0"
       inkscape:vp_z="744.09448 : 526.18109 : 1"
       inkscape:persp3d-origin="372.04724 : 350.78739 : 1"
       id="perspective10" />
    <inkscape:perspective
       id="perspective3231"
       inkscape:persp3d-origin="372.04724 : 350.78739 : 1"
       inkscape:vp_z="744.09448 : 526.18109 : 1"
       inkscape:vp_y="0 : 1000 : 0"
       inkscape:vp_x="0 : 526.18109 : 1"
       sodipodi:type="inkscape:persp3d" />
    <inkscape:perspective
       id="perspective3386"
       inkscape:persp3d-origin="372.04724 : 350.78739 : 1"
       inkscape:vp_z="744.09448 : 526.18109 : 1"
       inkscape:vp_y="0 : 1000 : 0"
       inkscape:vp_x="0 : 526.18109 : 1"
       sodipodi:type="inkscape:persp3d" />
    <clipPath
       clipPathUnits="userSpaceOnUse"
       id="clipPath3410">
      <rect
         style="fill:#4d4d4d;fill-opacity:0.32240439;stroke:none"
         id="rect3412"
         width="62.259396"
         height="34.348457"
         x="1.0574933"
         y="6.6414895" />
    </clipPath>
  </defs>
  <sodipodi:namedview
     id="base"
     pagecolor="#ffffff"
     bordercolor="#666666"
     borderopacity="1.0"
     gridtolerance="10000"
     guidetolerance="10"
     objecttolerance="10"
     inkscape:pageopacity="0.0"
     inkscape:pageshadow="2"
     inkscape:zoom="16.021977"
     inkscape:cx="51.49794"
     inkscape:cy="11.248929"
     inkscape:document-units="px"
     inkscape:current-layer="g2502"
     showgrid="false"
     inkscape:window-width="1920"
     inkscape:window-height="1027"
     inkscape:window-x="-1"
     inkscape:window-y="0"
     showguides="true"
     inkscape:guide-bbox="true"
     inkscape:window-maximized="1"
     fit-margin-top="0"
     fit-margin-left="0"
     fit-margin-right="0"
     fit-margin-bottom="0">
    <sodipodi:guide
       orientation="0,1"
       position="33.081361,14.213669"
       id="guide3005" />
    <sodipodi:guide
       orientation="0,1"
       position="27.276831,3.0415191"
       id="guide3007" />
  </sodipodi:namedview>
  <metadata
     id="metadata7">
    <rdf:RDF>
      <cc:Work
         rdf:about="">
        <dc:format>image/svg+xml</dc:format>
        <dc:type
           rdf:resource="http://purl.org/dc/dcmitype/StillImage" />
        <dc:title />
      </cc:Work>
    </rdf:RDF>
  </metadata>
  <g
     inkscape:label="Layer 1"
     inkscape:groupmode="layer"
     id="layer1"
     transform="translate(-328.29727,-517.43109)">
    <g
       id="g2502"
       transform="matrix(0.8749999,0,0,0.8749892,46.503719,65.738111)"
       inkscape:export-filename="/home/matias/repositorios/comonoservisto/content/imagenes/css.png"
       inkscape:export-xdpi="90"
       inkscape:export-ydpi="90">
      <rect
         ry="2.7172282"
         rx="2.9434373"
         y="517.16962"
         x="322.99249"
         height="18.114855"
         width="98.114578"
         id="rect2383"
         style="fill:#ffffff;fill-opacity:1;stroke:#4d4d4d;stroke-width:1.88538134;stroke-miterlimit:4;stroke-opacity:1;stroke-dasharray:none"
         inkscape:export-filename="/home/matias/repositorios/comonoservisto/content/imagenes/css.png"
         inkscape:export-xdpi="90"
         inkscape:export-ydpi="90" />
      <rect
         y="517.72198"
         x="359.73373"
         height="17.366711"
         width="60.580681"
         id="rect3239"
         style="fill:#4d4d4d;fill-opacity:1;stroke:none" />
      <g
         clip-path="url(#clipPath3410)"
         transform="matrix(0.4283392,0,0,0.3954205,327.6022,516.80983)"
         shape-rendering="geometricPrecision"
         text-rendering="geometricPrecision"
         image-rendering="optimizeQuality"
         id="g3359">
        <g
           shape-rendering="geometricPrecision"
           text-rendering="geometricPrecision"
           image-rendering="optimizeQuality"
           id="g3361">
          <g
             id="Background" />
          <g
             id="Guides" />
          <g
             id="Foreground">
            <rect
               style="fill:#ffffff;fill-rule:evenodd"
               y="0"
               x="0"
               width="72"
               clip-rule="evenodd"
               height="48"
               id="rect3366" />
            <g
               id="g3368">
              <path
                 style="fill:#005a9c"
                 d="m 18.117,8.006 5.759,19.58 5.759,-19.58 4.17,0 11.444,0 0,1.946 -5.879,10.128 c 2.065,0.663 3.627,1.868 4.686,3.615 1.059,1.748 1.589,3.799 1.589,6.155 0,2.914 -0.775,5.363 -2.324,7.348 -1.549,1.985 -3.555,2.978 -6.017,2.978 -1.854,0 -3.469,-0.589 -4.845,-1.767 -1.377,-1.178 -2.396,-2.773 -3.058,-4.786 l 3.256,-1.35 c 0.477,1.218 1.106,2.178 1.887,2.879 0.781,0.702 1.701,1.052 2.76,1.052 1.112,0 2.052,-0.622 2.82,-1.866 0.768,-1.245 1.152,-2.74 1.152,-4.489 0,-1.933 -0.411,-3.429 -1.231,-4.488 -0.954,-1.244 -2.45,-1.867 -4.489,-1.867 l -1.588,0 0,-1.906 5.56,-9.612 -6.712,0 -0.382,0.65 -8.163,27.548 -0.397,0 -5.958,-19.937 -5.957,19.937 -0.397,0 -9.53,-32.168 4.17,0 5.759,19.58 3.892,-13.185 -1.906,-6.395 4.17,0 0,0 z"
                 id="path3370"
                 inkscape:connector-curvature="0" />
            </g>
            <path
               style="fill-rule:evenodd"
               clip-rule="evenodd"
               d="m 66.92,8.006 c -0.819,0 -1.554,0.295 -2.111,0.861 -0.591,0.6 -0.92,1.376 -0.92,2.178 0,0.802 0.313,1.545 0.887,2.128 0.583,0.591 1.334,0.912 2.145,0.912 0.793,0 1.562,-0.321 2.161,-0.903 0.574,-0.557 0.887,-1.3 0.887,-2.136 0,-0.811 -0.321,-1.57 -0.878,-2.136 C 68.507,8.318 67.747,8.006 66.92,8.006 z m 2.643,3.065 c 0,0.701 -0.271,1.351 -0.768,1.832 -0.524,0.507 -1.174,0.777 -1.892,0.777 -0.675,0 -1.342,-0.278 -1.84,-0.785 -0.498,-0.507 -0.777,-1.157 -0.777,-1.849 0,-0.692 0.287,-1.368 0.802,-1.891 0.481,-0.49 1.131,-0.751 1.84,-0.751 0.726,0 1.376,0.271 1.883,0.785 0.49,0.489 0.752,1.147 0.752,1.882 z m -2.559,-1.807 -1.3,0 0,3.445 0.65,0 0,-1.469 0.642,0 0.701,1.469 0.726,0 -0.769,-1.57 c 0.498,-0.102 0.785,-0.439 0.785,-0.929 0,-0.625 -0.472,-0.946 -1.435,-0.946 z m -0.118,0.422 c 0.608,0 0.886,0.169 0.886,0.591 0,0.405 -0.278,0.549 -0.87,0.549 l -0.549,0 0,-1.14 0.533,0 0,0 z"
               id="path3372"
               inkscape:connector-curvature="0" />
          </g>
          <g
             id="Calque_1">
            <g
               id="g3375">
              <path
                 d="m 61.807,7.825 0.676,4.107 -2.391,4.575 c 0,0 -0.918,-1.941 -2.443,-3.015 -1.285,-0.905 -2.122,-1.102 -3.431,-0.832 -1.681,0.347 -3.587,2.357 -4.419,4.835 -0.995,2.965 -1.005,4.4 -1.04,5.718 -0.056,2.113 0.277,3.362 0.277,3.362 0,0 -1.452,-2.686 -1.438,-6.62 0.009,-2.808 0.451,-5.354 1.75,-7.867 1.143,-2.209 2.842,-3.535 4.35,-3.691 1.559,-0.161 2.791,0.59 3.743,1.403 1,0.854 2.01,2.721 2.01,2.721 l 2.356,-4.696 z"
                 id="path3377"
                 inkscape:connector-curvature="0" />
              <path
                 d="m 62.102,31.063 c 0,0 -1.057,1.889 -1.715,2.617 -0.659,0.728 -1.837,2.01 -3.292,2.651 -1.455,0.641 -2.218,0.762 -3.656,0.624 -1.437,-0.138 -2.772,-0.97 -3.24,-1.317 -0.468,-0.347 -1.664,-1.369 -2.34,-2.322 -0.676,-0.953 -1.733,-2.859 -1.733,-2.859 0,0 0.589,1.91 0.958,2.721 0.212,0.467 0.864,1.894 1.789,3.136 0.863,1.159 2.539,3.154 5.086,3.604 2.547,0.451 4.297,-0.693 4.73,-0.97 0.433,-0.277 1.346,-1.042 1.924,-1.66 0.603,-0.645 1.174,-1.468 1.49,-1.962 0.231,-0.36 0.607,-1.092 0.607,-1.092 l -0.608,-3.171 z"
                 id="path3379"
                 inkscape:connector-curvature="0" />
            </g>
          </g>
        </g>
      </g>
      <text
         transform="scale(1.040793,0.96080585)"
         id="text3414"
         y="553.31049"
         x="357.55368"
         style="font-size:16.93028641px;font-style:normal;font-weight:normal;fill:#ffffff;fill-opacity:1;stroke:none;font-family:Bitstream Vera Sans"
         xml:space="preserve"><tspan
           style="font-size:20.52518272px;font-weight:bold"
           y="553.31049"
           x="357.55368"
           id="tspan3416"
           sodipodi:role="line">css</tspan></text>
    </g>
  </g>
</svg>
