<?xml version="1.0" encoding="UTF-8" standalone="no"?>
<!-- Created with Inkscape (http://www.inkscape.org/) -->

<svg
   xmlns:dc="http://purl.org/dc/elements/1.1/"
   xmlns:cc="http://creativecommons.org/ns#"
   xmlns:rdf="http://www.w3.org/1999/02/22-rdf-syntax-ns#"
   xmlns:svg="http://www.w3.org/2000/svg"
   xmlns="http://www.w3.org/2000/svg"
   xmlns:sodipodi="http://sodipodi.sourceforge.net/DTD/sodipodi-0.dtd"
   xmlns:inkscape="http://www.inkscape.org/namespaces/inkscape"
   width="87.499939"
   height="17.5"
   id="svg2"
   sodipodi:version="0.32"
   inkscape:version="0.48.1 r9760"
   inkscape:export-filename="/home/mauricio/xhtml-rdfa.png"
   inkscape:export-xdpi="90"
   inkscape:export-ydpi="90"
   sodipodi:docname="xhtml-rdfa.svg"
   inkscape:output_extension="org.inkscape.output.svg.inkscape"
   version="1.1">
  <defs
     id="defs4">
    <inkscape:perspective
       sodipodi:type="inkscape:persp3d"
       inkscape:vp_x="0 : 526.18109 : 1"
       inkscape:vp_y="0 : 1000 : 0"
       inkscape:vp_z="744.09448 : 526.18109 : 1"
       inkscape:persp3d-origin="372.04724 : 350.78739 : 1"
       id="perspective10" />
    <inkscape:perspective
       id="perspective3231"
       inkscape:persp3d-origin="372.04724 : 350.78739 : 1"
       inkscape:vp_z="744.09448 : 526.18109 : 1"
       inkscape:vp_y="0 : 1000 : 0"
       inkscape:vp_x="0 : 526.18109 : 1"
       sodipodi:type="inkscape:persp3d" />
    <inkscape:perspective
       id="perspective3386"
       inkscape:persp3d-origin="372.04724 : 350.78739 : 1"
       inkscape:vp_z="744.09448 : 526.18109 : 1"
       inkscape:vp_y="0 : 1000 : 0"
       inkscape:vp_x="0 : 526.18109 : 1"
       sodipodi:type="inkscape:persp3d" />
    <clipPath
       clipPathUnits="userSpaceOnUse"
       id="clipPath3410">
      <rect
         style="fill:#4d4d4d;fill-opacity:0.32240439;stroke:none"
         id="rect3412"
         width="62.259396"
         height="34.348457"
         x="1.0574933"
         y="6.6414895" />
    </clipPath>
  </defs>
  <sodipodi:namedview
     id="base"
     pagecolor="#ffffff"
     bordercolor="#666666"
     borderopacity="1.0"
     gridtolerance="10000"
     guidetolerance="10"
     objecttolerance="10"
     inkscape:pageopacity="0.0"
     inkscape:pageshadow="2"
     inkscape:zoom="0.50068676"
     inkscape:cx="572.88812"
     inkscape:cy="-190.83875"
     inkscape:document-units="px"
     inkscape:current-layer="g2400"
     showgrid="false"
     inkscape:window-width="1920"
     inkscape:window-height="1027"
     inkscape:window-x="-1"
     inkscape:window-y="0"
     inkscape:window-maximized="1"
     showguides="true"
     inkscape:guide-bbox="true"
     fit-margin-top="0"
     fit-margin-left="0"
     fit-margin-right="0"
     fit-margin-bottom="0">
    <sodipodi:guide
       orientation="0,1"
       position="33.518268,14.213688"
       id="guide3005" />
    <sodipodi:guide
       orientation="0,1"
       position="33.174988,3.0103277"
       id="guide3007" />
  </sodipodi:namedview>
  <metadata
     id="metadata7">
    <rdf:RDF>
      <cc:Work
         rdf:about="">
        <dc:format>image/svg+xml</dc:format>
        <dc:type
           rdf:resource="http://purl.org/dc/dcmitype/StillImage" />
        <dc:title />
      </cc:Work>
    </rdf:RDF>
  </metadata>
  <g
     inkscape:label="Layer 1"
     inkscape:groupmode="layer"
     id="layer1"
     transform="translate(-328.29727,-517.43109)">
    <g
       id="g2400"
       transform="matrix(0.8585024,0,0,0.7925151,51.635193,109.17463)"
       inkscape:export-filename="/home/matias/eudemocracia/xhtml.png"
       inkscape:export-xdpi="90"
       inkscape:export-ydpi="90">
      <rect
         ry="3"
         rx="3"
         y="516.18109"
         x="323.22208"
         height="20"
         width="100"
         id="rect2383"
         style="fill:#ffffff;fill-opacity:1;stroke:#4d4d4d;stroke-width:2;stroke-miterlimit:4;stroke-opacity:1;stroke-dasharray:none"
         inkscape:export-filename="/home/matias/repositorios/comonoservisto/content/copyleft/fuentes/xhtml-rdfa.svg.png"
         inkscape:export-xdpi="90"
         inkscape:export-ydpi="90" />
      <rect
         y="516.86975"
         x="360.66937"
         height="18.780224"
         width="61.708481"
         id="rect3239"
         style="fill:#4d4d4d;fill-opacity:1;stroke:none" />
      <g
         clip-path="url(#clipPath3410)"
         transform="matrix(0.4365704,0,0,0.4365704,327.92038,515.78385)"
         shape-rendering="geometricPrecision"
         text-rendering="geometricPrecision"
         image-rendering="optimizeQuality"
         id="g3359">
        <g
           shape-rendering="geometricPrecision"
           text-rendering="geometricPrecision"
           image-rendering="optimizeQuality"
           id="g3361">
          <g
             id="Background" />
          <g
             id="Guides" />
          <g
             id="Foreground">
            <rect
               style="fill:#ffffff;fill-rule:evenodd"
               y="0"
               x="0"
               width="72"
               clip-rule="evenodd"
               height="48"
               id="rect3366" />
            <g
               id="g3368">
              <path
                 style="fill:#005a9c"
                 d="m 18.117,8.006 5.759,19.58 5.759,-19.58 4.17,0 11.444,0 0,1.946 -5.879,10.128 c 2.065,0.663 3.627,1.868 4.686,3.615 1.059,1.748 1.589,3.799 1.589,6.155 0,2.914 -0.775,5.363 -2.324,7.348 -1.549,1.985 -3.555,2.978 -6.017,2.978 -1.854,0 -3.469,-0.589 -4.845,-1.767 -1.377,-1.178 -2.396,-2.773 -3.058,-4.786 l 3.256,-1.35 c 0.477,1.218 1.106,2.178 1.887,2.879 0.781,0.702 1.701,1.052 2.76,1.052 1.112,0 2.052,-0.622 2.82,-1.866 0.768,-1.245 1.152,-2.74 1.152,-4.489 0,-1.933 -0.411,-3.429 -1.231,-4.488 -0.954,-1.244 -2.45,-1.867 -4.489,-1.867 l -1.588,0 0,-1.906 5.56,-9.612 -6.712,0 -0.382,0.65 -8.163,27.548 -0.397,0 -5.958,-19.937 -5.957,19.937 -0.397,0 -9.53,-32.168 4.17,0 5.759,19.58 3.892,-13.185 -1.906,-6.395 4.17,0 0,0 z"
                 id="path3370"
                 inkscape:connector-curvature="0" />
            </g>
            <path
               style="fill-rule:evenodd"
               clip-rule="evenodd"
               d="m 66.92,8.006 c -0.819,0 -1.554,0.295 -2.111,0.861 -0.591,0.6 -0.92,1.376 -0.92,2.178 0,0.802 0.313,1.545 0.887,2.128 0.583,0.591 1.334,0.912 2.145,0.912 0.793,0 1.562,-0.321 2.161,-0.903 0.574,-0.557 0.887,-1.3 0.887,-2.136 0,-0.811 -0.321,-1.57 -0.878,-2.136 C 68.507,8.318 67.747,8.006 66.92,8.006 z m 2.643,3.065 c 0,0.701 -0.271,1.351 -0.768,1.832 -0.524,0.507 -1.174,0.777 -1.892,0.777 -0.675,0 -1.342,-0.278 -1.84,-0.785 -0.498,-0.507 -0.777,-1.157 -0.777,-1.849 0,-0.692 0.287,-1.368 0.802,-1.891 0.481,-0.49 1.131,-0.751 1.84,-0.751 0.726,0 1.376,0.271 1.883,0.785 0.49,0.489 0.752,1.147 0.752,1.882 z m -2.559,-1.807 -1.3,0 0,3.445 0.65,0 0,-1.469 0.642,0 0.701,1.469 0.726,0 -0.769,-1.57 c 0.498,-0.102 0.785,-0.439 0.785,-0.929 0,-0.625 -0.472,-0.946 -1.435,-0.946 z m -0.118,0.422 c 0.608,0 0.886,0.169 0.886,0.591 0,0.405 -0.278,0.549 -0.87,0.549 l -0.549,0 0,-1.14 0.533,0 0,0 z"
               id="path3372"
               inkscape:connector-curvature="0" />
          </g>
          <g
             id="Calque_1">
            <g
               id="g3375">
              <path
                 d="m 61.807,7.825 0.676,4.107 -2.391,4.575 c 0,0 -0.918,-1.941 -2.443,-3.015 -1.285,-0.905 -2.122,-1.102 -3.431,-0.832 -1.681,0.347 -3.587,2.357 -4.419,4.835 -0.995,2.965 -1.005,4.4 -1.04,5.718 -0.056,2.113 0.277,3.362 0.277,3.362 0,0 -1.452,-2.686 -1.438,-6.62 0.009,-2.808 0.451,-5.354 1.75,-7.867 1.143,-2.209 2.842,-3.535 4.35,-3.691 1.559,-0.161 2.791,0.59 3.743,1.403 1,0.854 2.01,2.721 2.01,2.721 l 2.356,-4.696 z"
                 id="path3377"
                 inkscape:connector-curvature="0" />
              <path
                 d="m 62.102,31.063 c 0,0 -1.057,1.889 -1.715,2.617 -0.659,0.728 -1.837,2.01 -3.292,2.651 -1.455,0.641 -2.218,0.762 -3.656,0.624 -1.437,-0.138 -2.772,-0.97 -3.24,-1.317 -0.468,-0.347 -1.664,-1.369 -2.34,-2.322 -0.676,-0.953 -1.733,-2.859 -1.733,-2.859 0,0 0.589,1.91 0.958,2.721 0.212,0.467 0.864,1.894 1.789,3.136 0.863,1.159 2.539,3.154 5.086,3.604 2.547,0.451 4.297,-0.693 4.73,-0.97 0.433,-0.277 1.346,-1.042 1.924,-1.66 0.603,-0.645 1.174,-1.468 1.49,-1.962 0.231,-0.36 0.607,-1.092 0.607,-1.092 l -0.608,-3.171 z"
                 id="path3379"
                 inkscape:connector-curvature="0" />
            </g>
          </g>
        </g>
      </g>
      <g
         transform="scale(0.9151889,1.0926706)"
         style="font-size:11.2307272px;font-style:normal;font-weight:normal;fill:#ffffff;fill-opacity:1;stroke:none;font-family:Bitstream Vera Sans"
         id="text3414">
        <path
           d="m 398.18078,482.50335 -2.21544,-2.99962 2.07834,0 1.25578,1.82061 1.27223,-1.82061 2.07835,0 -2.21544,2.98865 2.32511,3.15316 -2.07834,0 -1.38191,-1.94125 -1.36545,1.94125 -2.07834,0 2.32511,-3.14219"
           style="font-weight:bold"
           id="path3012"
           inkscape:connector-curvature="0" />
        <path
           d="m 410.04214,481.90562 0,3.73992 -1.97416,0 0,-0.6087 0,-2.24285 c 0,-0.53741 -0.0128,-0.90665 -0.0384,-1.10772 -0.0219,-0.20107 -0.0622,-0.34913 -0.12064,-0.44419 -0.0768,-0.12795 -0.18097,-0.22665 -0.31258,-0.29612 -0.13161,-0.0731 -0.2815,-0.10967 -0.44967,-0.10967 -0.40945,0 -0.73117,0.15903 -0.96514,0.47708 -0.23397,0.31441 -0.35096,0.75128 -0.35096,1.31062 l 0,3.02155 -1.96318,0 0,-8.53272 1.96318,0 0,3.29025 c 0.29612,-0.35827 0.61052,-0.62149 0.94321,-0.78966 0.33268,-0.17182 0.70009,-0.25773 1.10223,-0.25774 0.70923,1e-5 1.24664,0.21753 1.61223,0.65257 0.36923,0.43505 0.55385,1.06751 0.55386,1.89738"
           style="font-weight:bold"
           id="path3014"
           inkscape:connector-curvature="0" />
        <path
           d="m 414.01786,477.7599 0,1.74383 2.0235,0 0,1.40385 -2.0235,0 0,2.60478 c -10e-6,0.28516 0.0567,0.47891 0.16999,0.58128 0.11333,0.0987 0.33816,0.14806 0.67451,0.14806 l 1.00901,0 0,1.40384 -1.68352,0 c -0.77504,0 -1.32524,-0.16086 -1.65061,-0.48257 -0.32171,-0.32537 -0.48257,-0.87557 -0.48257,-1.65061 l 0,-2.60478 -0.9761,0 0,-1.40385 0.9761,0 0,-1.74383 1.96319,0"
           style="font-weight:bold"
           id="path3016"
           inkscape:connector-curvature="0" />
        <path
           d="m 422.93992,480.52371 c 0.24859,-0.3802 0.54289,-0.66901 0.88289,-0.86643 0.34364,-0.20107 0.72019,-0.3016 1.12965,-0.30161 0.70557,1e-5 1.24297,0.21753 1.61222,0.65257 0.36923,0.43505 0.55385,1.06751 0.55386,1.89738 l 0,3.73992 -1.97415,0 0,-3.20251 c 0.004,-0.0475 0.005,-0.0969 0.005,-0.14807 0.004,-0.0512 0.005,-0.12429 0.005,-0.21935 -10e-6,-0.43504 -0.064,-0.74944 -0.19193,-0.9432 -0.12797,-0.19741 -0.33452,-0.29612 -0.61967,-0.29612 -0.3729,0 -0.66171,0.15355 -0.86643,0.46063 -0.20108,0.3071 -0.30527,0.75128 -0.31257,1.33255 l 0,3.01607 -1.97415,0 0,-3.20251 c -10e-6,-0.67999 -0.0585,-1.11686 -0.17549,-1.31062 -0.11699,-0.19741 -0.32537,-0.29612 -0.62514,-0.29612 -0.37656,0 -0.6672,0.15537 -0.87192,0.46612 -0.20473,0.30709 -0.30709,0.74762 -0.30709,1.32158 l 0,3.02155 -1.97415,0 0,-6.14181 1.97415,0 0,0.89934 c 0.24128,-0.3473 0.5173,-0.60869 0.82805,-0.78418 0.31439,-0.17547 0.65987,-0.26321 1.03643,-0.26322 0.42407,1e-5 0.79879,0.10237 1.12417,0.30709 0.32536,0.20474 0.57213,0.49172 0.7403,0.86095"
           style="font-weight:bold"
           id="path3018"
           inkscape:connector-curvature="0" />
        <path
           d="m 428.96109,477.11282 1.96318,0 0,8.53272 -1.96318,0 0,-8.53272"
           style="font-weight:bold"
           id="path3020"
           inkscape:connector-curvature="0" />
        <path
           d="m 434.34585,480.09322 0,1.32336 1.31831,0 0,0.59602 -1.31831,0 0,1.32336 -0.60107,0 0,-1.32336 -1.31831,0 0,-0.59602 1.31831,0 0,-1.32336 0.60107,0"
           style="font-size:5.17221069px"
           id="path3022"
           inkscape:connector-curvature="0" />
        <path
           d="m 441.71788,481.17628 c -0.17183,-0.0804 -0.34366,-0.13892 -0.51548,-0.17548 -0.16817,-0.0402 -0.33817,-0.0603 -0.50998,-0.0603 -0.50451,0 -0.89386,0.16269 -1.16804,0.48805 -0.27054,0.32172 -0.4058,0.78418 -0.4058,1.38739 l 0,2.82962 -1.96319,0 0,-6.14181 1.96319,0 0,1.00902 c 0.25225,-0.40214 0.54106,-0.69461 0.86643,-0.87741 0.32902,-0.18644 0.72202,-0.27966 1.17901,-0.27967 0.0658,1e-5 0.13709,0.004 0.21386,0.011 0.0768,0.004 0.18827,0.0146 0.33451,0.0329 l 0.005,1.77674"
           style="font-weight:bold"
           id="path3024"
           inkscape:connector-curvature="0" />
        <path
           d="m 446.88358,480.40307 0,-3.29025 1.97415,0 0,8.53272 -1.97415,0 0,-0.88837 c -0.27054,0.36193 -0.56849,0.62698 -0.89386,0.79514 -0.32537,0.16817 -0.70192,0.25226 -1.12965,0.25226 -0.75676,0 -1.37825,-0.29978 -1.86448,-0.89934 -0.48622,-0.60321 -0.72934,-1.37825 -0.72934,-2.32511 0,-0.94686 0.24312,-1.72007 0.72934,-2.31963 0.48623,-0.6032 1.10772,-0.90481 1.86448,-0.90482 0.42407,1e-5 0.7988,0.0859 1.12417,0.25774 0.32902,0.16817 0.6288,0.43139 0.89934,0.78966 m -1.29417,3.97572 c 0.42042,0 0.7403,-0.15354 0.95966,-0.46063 0.223,-0.30709 0.3345,-0.7531 0.33451,-1.33804 -10e-6,-0.58493 -0.11151,-1.03094 -0.33451,-1.33804 -0.21936,-0.30708 -0.53924,-0.46063 -0.95966,-0.46063 -0.41677,0 -0.73665,0.15355 -0.95966,0.46063 -0.21935,0.3071 -0.32903,0.75311 -0.32902,1.33804 -10e-6,0.58494 0.10967,1.03095 0.32902,1.33804 0.22301,0.30709 0.54289,0.46063 0.95966,0.46063"
           style="font-weight:bold"
           id="path3026"
           inkscape:connector-curvature="0" />
        <path
           d="m 454.79663,477.11282 0,1.28868 -1.08578,0 c -0.27785,10e-6 -0.47161,0.0512 -0.58128,0.15355 -0.10968,0.0987 -0.16452,0.27236 -0.16451,0.52095 l 0,0.42773 1.67802,0 0,1.40385 -1.67802,0 0,4.73796 -1.96319,0 0,-4.73796 -0.97611,0 0,-1.40385 0.97611,0 0,-0.42773 c 0,-0.66901 0.18645,-1.16255 0.55934,-1.48061 0.3729,-0.32171 0.95052,-0.48256 1.73287,-0.48257 l 1.50255,0"
           style="font-weight:bold"
           id="path3028"
           inkscape:connector-curvature="0" />
        <path
           d="m 458.39946,482.88173 c -0.40946,0 -0.71838,0.0695 -0.92676,0.20838 -0.20473,0.13892 -0.30709,0.34365 -0.30709,0.61418 0,0.2486 0.0823,0.44419 0.24677,0.58676 0.16817,0.13892 0.40031,0.20838 0.69644,0.20838 0.36923,0 0.67998,-0.1316 0.93224,-0.39483 0.25224,-0.26687 0.37837,-0.59955 0.37838,-0.99804 l 0,-0.22483 -1.01998,0 m 2.99961,-0.74031 0,3.50412 -1.97963,0 0,-0.9103 c -0.26323,0.37289 -0.55935,0.64525 -0.88837,0.81707 -0.32903,0.16817 -0.72935,0.25226 -1.20094,0.25226 -0.63612,0 -1.15342,-0.18462 -1.55191,-0.55386 -0.39483,-0.3729 -0.59224,-0.85547 -0.59224,-1.44771 0,-0.7202 0.24677,-1.24847 0.7403,-1.58481 0.4972,-0.33633 1.27589,-0.5045 2.33608,-0.5045 l 1.15708,0 0,-0.15355 c -1e-5,-0.31074 -0.12248,-0.5374 -0.36742,-0.67998 -0.24494,-0.14623 -0.62698,-0.21935 -1.1461,-0.21935 -0.42042,0 -0.8116,0.042 -1.17352,0.12612 -0.36193,0.0841 -0.69827,0.21022 -1.00901,0.37838 l 0,-1.49706 c 0.42042,-0.10236 0.84266,-0.17913 1.26674,-0.23032 0.42408,-0.0548 0.84815,-0.0822 1.27223,-0.0823 1.10772,10e-6 1.90652,0.21936 2.3964,0.65805 0.49353,0.43505 0.7403,1.14428 0.74031,2.1277"
           style="font-weight:bold"
           id="path3030"
           inkscape:connector-curvature="0" />
      </g>
    </g>
  </g>
</svg>
