<?xml version="1.0" encoding="UTF-8" standalone="no"?>
<!-- Created with Inkscape (http://www.inkscape.org/) -->

<svg
   xmlns:dc="http://purl.org/dc/elements/1.1/"
   xmlns:cc="http://creativecommons.org/ns#"
   xmlns:rdf="http://www.w3.org/1999/02/22-rdf-syntax-ns#"
   xmlns:svg="http://www.w3.org/2000/svg"
   xmlns="http://www.w3.org/2000/svg"
   xmlns:sodipodi="http://sodipodi.sourceforge.net/DTD/sodipodi-0.dtd"
   xmlns:inkscape="http://www.inkscape.org/namespaces/inkscape"
   width="744.09448819"
   height="1052.3622047"
   id="svg2"
   sodipodi:version="0.32"
   inkscape:version="0.48.1 r9760"
   inkscape:export-filename="/home/mauricio/xhtml-rdfa.png"
   inkscape:export-xdpi="90"
   inkscape:export-ydpi="90"
   sodipodi:docname="xhtml-rdfa.svg"
   inkscape:output_extension="org.inkscape.output.svg.inkscape"
   version="1.1">
  <defs
     id="defs4">
    <inkscape:perspective
       sodipodi:type="inkscape:persp3d"
       inkscape:vp_x="0 : 526.18109 : 1"
       inkscape:vp_y="0 : 1000 : 0"
       inkscape:vp_z="744.09448 : 526.18109 : 1"
       inkscape:persp3d-origin="372.04724 : 350.78739 : 1"
       id="perspective10" />
    <inkscape:perspective
       id="perspective3231"
       inkscape:persp3d-origin="372.04724 : 350.78739 : 1"
       inkscape:vp_z="744.09448 : 526.18109 : 1"
       inkscape:vp_y="0 : 1000 : 0"
       inkscape:vp_x="0 : 526.18109 : 1"
       sodipodi:type="inkscape:persp3d" />
    <inkscape:perspective
       id="perspective3386"
       inkscape:persp3d-origin="372.04724 : 350.78739 : 1"
       inkscape:vp_z="744.09448 : 526.18109 : 1"
       inkscape:vp_y="0 : 1000 : 0"
       inkscape:vp_x="0 : 526.18109 : 1"
       sodipodi:type="inkscape:persp3d" />
    <clipPath
       clipPathUnits="userSpaceOnUse"
       id="clipPath3410">
      <rect
         style="fill:#4d4d4d;fill-opacity:0.32240439;stroke:none;stroke-width:2;stroke-miterlimit:4;stroke-dasharray:none;stroke-opacity:0.50819672"
         id="rect3412"
         width="62.259396"
         height="34.348457"
         x="1.0574933"
         y="6.6414895" />
    </clipPath>
  </defs>
  <sodipodi:namedview
     id="base"
     pagecolor="#ffffff"
     bordercolor="#666666"
     borderopacity="1.0"
     gridtolerance="10000"
     guidetolerance="10"
     objecttolerance="10"
     inkscape:pageopacity="0.0"
     inkscape:pageshadow="2"
     inkscape:zoom="11.329248"
     inkscape:cx="365.99099"
     inkscape:cy="518.02853"
     inkscape:document-units="px"
     inkscape:current-layer="g2400"
     showgrid="false"
     inkscape:window-width="1920"
     inkscape:window-height="1027"
     inkscape:window-x="-1"
     inkscape:window-y="0"
     inkscape:window-maximized="1"
     showguides="true"
     inkscape:guide-bbox="true">
    <sodipodi:guide
       orientation="0,1"
       position="361.81554,531.64478"
       id="guide3005" />
    <sodipodi:guide
       orientation="0,1"
       position="361.47226,520.44142"
       id="guide3007" />
  </sodipodi:namedview>
  <metadata
     id="metadata7">
    <rdf:RDF>
      <cc:Work
         rdf:about="">
        <dc:format>image/svg+xml</dc:format>
        <dc:type
           rdf:resource="http://purl.org/dc/dcmitype/StillImage" />
        <dc:title></dc:title>
      </cc:Work>
    </rdf:RDF>
  </metadata>
  <g
     inkscape:label="Layer 1"
     inkscape:groupmode="layer"
     id="layer1">
    <g
       id="g2400"
       transform="matrix(0.8585024,0,0,0.7925151,51.635193,109.17463)"
       inkscape:export-filename="/home/matias/eudemocracia/xhtml.png"
       inkscape:export-xdpi="90"
       inkscape:export-ydpi="90">
      <rect
         ry="3"
         rx="3"
         y="516.18109"
         x="323.22208"
         height="20"
         width="100"
         id="rect2383"
         style="fill:#ffffff;fill-opacity:1;stroke:#4d4d4d;stroke-width:2;stroke-miterlimit:4;stroke-dasharray:none;stroke-opacity:1"
         inkscape:export-filename="/home/matias/repositorios/comonoservisto/content/copyleft/fuentes/xhtml-rdfa.svg.png"
         inkscape:export-xdpi="90"
         inkscape:export-ydpi="90" />
      <rect
         y="516.86975"
         x="360.66937"
         height="18.780224"
         width="61.708481"
         id="rect3239"
         style="fill:#4d4d4d;fill-opacity:1;stroke:none" />
      <g
         clip-path="url(#clipPath3410)"
         transform="matrix(0.4365704,0,0,0.4365704,327.92038,515.78385)"
         shape-rendering="geometricPrecision"
         text-rendering="geometricPrecision"
         image-rendering="optimizeQuality"
         id="g3359">
        <g
           shape-rendering="geometricPrecision"
           text-rendering="geometricPrecision"
           image-rendering="optimizeQuality"
           id="g3361">
          <g
             id="Background" />
          <g
             id="Guides" />
          <g
             id="Foreground">
            <rect
               style="fill:#ffffff;fill-rule:evenodd"
               y="0"
               x="0"
               width="72"
               clip-rule="evenodd"
               height="48"
               id="rect3366" />
            <g
               id="g3368">
              <path
                 style="fill:#005a9c"
                 d="M 18.117,8.006 L 23.876,27.586 L 29.635,8.006 L 33.805,8.006 L 45.249,8.006 L 45.249,9.952 L 39.37,20.08 C 41.435,20.743 42.997,21.948 44.056,23.695 C 45.115,25.443 45.645,27.494 45.645,29.85 C 45.645,32.764 44.87,35.213 43.321,37.198 C 41.772,39.183 39.766,40.176 37.304,40.176 C 35.45,40.176 33.835,39.587 32.459,38.409 C 31.082,37.231 30.063,35.636 29.401,33.623 L 32.657,32.273 C 33.134,33.491 33.763,34.451 34.544,35.152 C 35.325,35.854 36.245,36.204 37.304,36.204 C 38.416,36.204 39.356,35.582 40.124,34.338 C 40.892,33.093 41.276,31.598 41.276,29.849 C 41.276,27.916 40.865,26.42 40.045,25.361 C 39.091,24.117 37.595,23.494 35.556,23.494 L 33.968,23.494 L 33.968,21.588 L 39.528,11.976 L 32.816,11.976 L 32.434,12.626 L 24.271,40.174 L 23.874,40.174 L 17.916,20.237 L 11.959,40.174 L 11.562,40.174 L 2.032,8.006 L 6.202,8.006 L 11.961,27.586 L 15.853,14.401 L 13.947,8.006 L 18.117,8.006 L 18.117,8.006 z"
                 id="path3370" />
            </g>
            <path
               style="fill-rule:evenodd"
               clip-rule="evenodd"
               d="M 66.92,8.006 C 66.101,8.006 65.366,8.301 64.809,8.867 C 64.218,9.467 63.889,10.243 63.889,11.045 C 63.889,11.847 64.202,12.59 64.776,13.173 C 65.359,13.764 66.11,14.085 66.921,14.085 C 67.714,14.085 68.483,13.764 69.082,13.182 C 69.656,12.625 69.969,11.882 69.969,11.046 C 69.969,10.235 69.648,9.476 69.091,8.91 C 68.507,8.318 67.747,8.006 66.92,8.006 z M 69.563,11.071 C 69.563,11.772 69.292,12.422 68.795,12.903 C 68.271,13.41 67.621,13.68 66.903,13.68 C 66.228,13.68 65.561,13.402 65.063,12.895 C 64.565,12.388 64.286,11.738 64.286,11.046 C 64.286,10.354 64.573,9.678 65.088,9.155 C 65.569,8.665 66.219,8.404 66.928,8.404 C 67.654,8.404 68.304,8.675 68.811,9.189 C 69.301,9.678 69.563,10.336 69.563,11.071 z M 67.004,9.264 L 65.704,9.264 L 65.704,12.709 L 66.354,12.709 L 66.354,11.24 L 66.996,11.24 L 67.697,12.709 L 68.423,12.709 L 67.654,11.139 C 68.152,11.037 68.439,10.7 68.439,10.21 C 68.439,9.585 67.967,9.264 67.004,9.264 z M 66.886,9.686 C 67.494,9.686 67.772,9.855 67.772,10.277 C 67.772,10.682 67.494,10.826 66.902,10.826 L 66.353,10.826 L 66.353,9.686 L 66.886,9.686 L 66.886,9.686 z"
               id="path3372" />
          </g>
          <g
             id="Calque_1">
            <g
               id="g3375">
              <path
                 d="M 61.807,7.825 L 62.483,11.932 L 60.092,16.507 C 60.092,16.507 59.174,14.566 57.649,13.492 C 56.364,12.587 55.527,12.39 54.218,12.66 C 52.537,13.007 50.631,15.017 49.799,17.495 C 48.804,20.46 48.794,21.895 48.759,23.213 C 48.703,25.326 49.036,26.575 49.036,26.575 C 49.036,26.575 47.584,23.889 47.598,19.955 C 47.607,17.147 48.049,14.601 49.348,12.088 C 50.491,9.879 52.19,8.553 53.698,8.397 C 55.257,8.236 56.489,8.987 57.441,9.8 C 58.441,10.654 59.451,12.521 59.451,12.521 L 61.807,7.825 z"
                 id="path3377" />
              <path
                 d="M 62.102,31.063 C 62.102,31.063 61.045,32.952 60.387,33.68 C 59.728,34.408 58.55,35.69 57.095,36.331 C 55.64,36.972 54.877,37.093 53.439,36.955 C 52.002,36.817 50.667,35.985 50.199,35.638 C 49.731,35.291 48.535,34.269 47.859,33.316 C 47.183,32.363 46.126,30.457 46.126,30.457 C 46.126,30.457 46.715,32.367 47.084,33.178 C 47.296,33.645 47.948,35.072 48.873,36.314 C 49.736,37.473 51.412,39.468 53.959,39.918 C 56.506,40.369 58.256,39.225 58.689,38.948 C 59.122,38.671 60.035,37.906 60.613,37.288 C 61.216,36.643 61.787,35.82 62.103,35.326 C 62.334,34.966 62.71,34.234 62.71,34.234 L 62.102,31.063 z"
                 id="path3379" />
            </g>
          </g>
        </g>
      </g>
      <g
         transform="scale(0.9151889,1.0926706)"
         style="font-size:11.2307272px;font-style:normal;font-weight:normal;fill:#ffffff;fill-opacity:1;stroke:none;font-family:Bitstream Vera Sans"
         id="text3414">
        <path
           d="m 398.18078,482.50335 -2.21544,-2.99962 2.07834,0 1.25578,1.82061 1.27223,-1.82061 2.07835,0 -2.21544,2.98865 2.32511,3.15316 -2.07834,0 -1.38191,-1.94125 -1.36545,1.94125 -2.07834,0 2.32511,-3.14219"
           style="font-weight:bold"
           id="path3012" />
        <path
           d="m 410.04214,481.90562 0,3.73992 -1.97416,0 0,-0.6087 0,-2.24285 c 0,-0.53741 -0.0128,-0.90665 -0.0384,-1.10772 -0.0219,-0.20107 -0.0622,-0.34913 -0.12064,-0.44419 -0.0768,-0.12795 -0.18097,-0.22665 -0.31258,-0.29612 -0.13161,-0.0731 -0.2815,-0.10967 -0.44967,-0.10967 -0.40945,0 -0.73117,0.15903 -0.96514,0.47708 -0.23397,0.31441 -0.35096,0.75128 -0.35096,1.31062 l 0,3.02155 -1.96318,0 0,-8.53272 1.96318,0 0,3.29025 c 0.29612,-0.35827 0.61052,-0.62149 0.94321,-0.78966 0.33268,-0.17182 0.70009,-0.25773 1.10223,-0.25774 0.70923,1e-5 1.24664,0.21753 1.61223,0.65257 0.36923,0.43505 0.55385,1.06751 0.55386,1.89738"
           style="font-weight:bold"
           id="path3014" />
        <path
           d="m 414.01786,477.7599 0,1.74383 2.0235,0 0,1.40385 -2.0235,0 0,2.60478 c -10e-6,0.28516 0.0567,0.47891 0.16999,0.58128 0.11333,0.0987 0.33816,0.14806 0.67451,0.14806 l 1.00901,0 0,1.40384 -1.68352,0 c -0.77504,0 -1.32524,-0.16086 -1.65061,-0.48257 -0.32171,-0.32537 -0.48257,-0.87557 -0.48257,-1.65061 l 0,-2.60478 -0.9761,0 0,-1.40385 0.9761,0 0,-1.74383 1.96319,0"
           style="font-weight:bold"
           id="path3016" />
        <path
           d="m 422.93992,480.52371 c 0.24859,-0.3802 0.54289,-0.66901 0.88289,-0.86643 0.34364,-0.20107 0.72019,-0.3016 1.12965,-0.30161 0.70557,1e-5 1.24297,0.21753 1.61222,0.65257 0.36923,0.43505 0.55385,1.06751 0.55386,1.89738 l 0,3.73992 -1.97415,0 0,-3.20251 c 0.004,-0.0475 0.005,-0.0969 0.005,-0.14807 0.004,-0.0512 0.005,-0.12429 0.005,-0.21935 -10e-6,-0.43504 -0.064,-0.74944 -0.19193,-0.9432 -0.12797,-0.19741 -0.33452,-0.29612 -0.61967,-0.29612 -0.3729,0 -0.66171,0.15355 -0.86643,0.46063 -0.20108,0.3071 -0.30527,0.75128 -0.31257,1.33255 l 0,3.01607 -1.97415,0 0,-3.20251 c -10e-6,-0.67999 -0.0585,-1.11686 -0.17549,-1.31062 -0.11699,-0.19741 -0.32537,-0.29612 -0.62514,-0.29612 -0.37656,0 -0.6672,0.15537 -0.87192,0.46612 -0.20473,0.30709 -0.30709,0.74762 -0.30709,1.32158 l 0,3.02155 -1.97415,0 0,-6.14181 1.97415,0 0,0.89934 c 0.24128,-0.3473 0.5173,-0.60869 0.82805,-0.78418 0.31439,-0.17547 0.65987,-0.26321 1.03643,-0.26322 0.42407,1e-5 0.79879,0.10237 1.12417,0.30709 0.32536,0.20474 0.57213,0.49172 0.7403,0.86095"
           style="font-weight:bold"
           id="path3018" />
        <path
           d="m 428.96109,477.11282 1.96318,0 0,8.53272 -1.96318,0 0,-8.53272"
           style="font-weight:bold"
           id="path3020" />
        <path
           d="m 434.34585,480.09322 0,1.32336 1.31831,0 0,0.59602 -1.31831,0 0,1.32336 -0.60107,0 0,-1.32336 -1.31831,0 0,-0.59602 1.31831,0 0,-1.32336 0.60107,0"
           style="font-size:5.17221069px"
           id="path3022"
           inkscape:connector-curvature="0" />
        <path
           d="m 441.71788,481.17628 c -0.17183,-0.0804 -0.34366,-0.13892 -0.51548,-0.17548 -0.16817,-0.0402 -0.33817,-0.0603 -0.50998,-0.0603 -0.50451,0 -0.89386,0.16269 -1.16804,0.48805 -0.27054,0.32172 -0.4058,0.78418 -0.4058,1.38739 l 0,2.82962 -1.96319,0 0,-6.14181 1.96319,0 0,1.00902 c 0.25225,-0.40214 0.54106,-0.69461 0.86643,-0.87741 0.32902,-0.18644 0.72202,-0.27966 1.17901,-0.27967 0.0658,1e-5 0.13709,0.004 0.21386,0.011 0.0768,0.004 0.18827,0.0146 0.33451,0.0329 l 0.005,1.77674"
           style="font-weight:bold"
           id="path3024" />
        <path
           d="m 446.88358,480.40307 0,-3.29025 1.97415,0 0,8.53272 -1.97415,0 0,-0.88837 c -0.27054,0.36193 -0.56849,0.62698 -0.89386,0.79514 -0.32537,0.16817 -0.70192,0.25226 -1.12965,0.25226 -0.75676,0 -1.37825,-0.29978 -1.86448,-0.89934 -0.48622,-0.60321 -0.72934,-1.37825 -0.72934,-2.32511 0,-0.94686 0.24312,-1.72007 0.72934,-2.31963 0.48623,-0.6032 1.10772,-0.90481 1.86448,-0.90482 0.42407,1e-5 0.7988,0.0859 1.12417,0.25774 0.32902,0.16817 0.6288,0.43139 0.89934,0.78966 m -1.29417,3.97572 c 0.42042,0 0.7403,-0.15354 0.95966,-0.46063 0.223,-0.30709 0.3345,-0.7531 0.33451,-1.33804 -10e-6,-0.58493 -0.11151,-1.03094 -0.33451,-1.33804 -0.21936,-0.30708 -0.53924,-0.46063 -0.95966,-0.46063 -0.41677,0 -0.73665,0.15355 -0.95966,0.46063 -0.21935,0.3071 -0.32903,0.75311 -0.32902,1.33804 -10e-6,0.58494 0.10967,1.03095 0.32902,1.33804 0.22301,0.30709 0.54289,0.46063 0.95966,0.46063"
           style="font-weight:bold"
           id="path3026" />
        <path
           d="m 454.79663,477.11282 0,1.28868 -1.08578,0 c -0.27785,10e-6 -0.47161,0.0512 -0.58128,0.15355 -0.10968,0.0987 -0.16452,0.27236 -0.16451,0.52095 l 0,0.42773 1.67802,0 0,1.40385 -1.67802,0 0,4.73796 -1.96319,0 0,-4.73796 -0.97611,0 0,-1.40385 0.97611,0 0,-0.42773 c 0,-0.66901 0.18645,-1.16255 0.55934,-1.48061 0.3729,-0.32171 0.95052,-0.48256 1.73287,-0.48257 l 1.50255,0"
           style="font-weight:bold"
           id="path3028" />
        <path
           d="m 458.39946,482.88173 c -0.40946,0 -0.71838,0.0695 -0.92676,0.20838 -0.20473,0.13892 -0.30709,0.34365 -0.30709,0.61418 0,0.2486 0.0823,0.44419 0.24677,0.58676 0.16817,0.13892 0.40031,0.20838 0.69644,0.20838 0.36923,0 0.67998,-0.1316 0.93224,-0.39483 0.25224,-0.26687 0.37837,-0.59955 0.37838,-0.99804 l 0,-0.22483 -1.01998,0 m 2.99961,-0.74031 0,3.50412 -1.97963,0 0,-0.9103 c -0.26323,0.37289 -0.55935,0.64525 -0.88837,0.81707 -0.32903,0.16817 -0.72935,0.25226 -1.20094,0.25226 -0.63612,0 -1.15342,-0.18462 -1.55191,-0.55386 -0.39483,-0.3729 -0.59224,-0.85547 -0.59224,-1.44771 0,-0.7202 0.24677,-1.24847 0.7403,-1.58481 0.4972,-0.33633 1.27589,-0.5045 2.33608,-0.5045 l 1.15708,0 0,-0.15355 c -1e-5,-0.31074 -0.12248,-0.5374 -0.36742,-0.67998 -0.24494,-0.14623 -0.62698,-0.21935 -1.1461,-0.21935 -0.42042,0 -0.8116,0.042 -1.17352,0.12612 -0.36193,0.0841 -0.69827,0.21022 -1.00901,0.37838 l 0,-1.49706 c 0.42042,-0.10236 0.84266,-0.17913 1.26674,-0.23032 0.42408,-0.0548 0.84815,-0.0822 1.27223,-0.0823 1.10772,1e-5 1.90652,0.21936 2.3964,0.65805 0.49353,0.43505 0.7403,1.14428 0.74031,2.1277"
           style="font-weight:bold"
           id="path3030" />
      </g>
    </g>
  </g>
</svg>
